HIERARCHY
ROOT Hips
{
	OFFSET 0.00000 0.00000 0.00000
	CHANNELS 6 Xposition Yposition Zposition Zrotation Yrotation Xrotation 
	JOINT LHipJoint
	{
		OFFSET 0 0 0
		CHANNELS 3 Zrotation Yrotation Xrotation
		JOINT LeftUpLeg
		{
			OFFSET 1.57358 -1.76629 0.73362
			CHANNELS 3 Zrotation Yrotation Xrotation
			JOINT LeftLeg
			{
				OFFSET 2.40600 -6.61045 0.00000
				CHANNELS 3 Zrotation Yrotation Xrotation
				JOINT LeftFoot
				{
					OFFSET 2.66168 -7.31291 0.00000
					CHANNELS 3 Zrotation Yrotation Xrotation
					JOINT LeftToeBase
					{
						OFFSET 0.20870 -0.57341 2.12506
						CHANNELS 3 Zrotation Yrotation Xrotation
						End Site
						{
							OFFSET 0.00000 -0.00000 1.10557
						}
					}
				}
			}
		}
	}
	JOINT RHipJoint
	{
		OFFSET 0 0 0
		CHANNELS 3 Zrotation Yrotation Xrotation
		JOINT RightUpLeg
		{
			OFFSET -1.49299 -1.76629 0.73362
			CHANNELS 3 Zrotation Yrotation Xrotation
			JOINT RightLeg
			{
				OFFSET -2.43663 -6.69460 0.00000
				CHANNELS 3 Zrotation Yrotation Xrotation
				JOINT RightFoot
				{
					OFFSET -2.62959 -7.22474 0.00000
					CHANNELS 3 Zrotation Yrotation Xrotation
					JOINT RightToeBase
					{
						OFFSET -0.25784 -0.70841 2.21862
						CHANNELS 3 Zrotation Yrotation Xrotation
						End Site
						{
							OFFSET -0.00000 -0.00000 1.16452
						}
					}
				}
			}
		}
	}
	JOINT LowerBack
	{
		OFFSET 0 0 0
		CHANNELS 3 Zrotation Yrotation Xrotation
		JOINT Spine
		{
			OFFSET -0.00034 2.12399 -0.25450
			CHANNELS 3 Zrotation Yrotation Xrotation
			JOINT Spine1
			{
				OFFSET 0.05594 2.14379 -0.03318
				CHANNELS 3 Zrotation Yrotation Xrotation
				JOINT Neck
				{
					OFFSET 0 0 0
					CHANNELS 3 Zrotation Yrotation Xrotation
					JOINT Neck1
					{
						OFFSET -0.09835 1.62725 0.24211
						CHANNELS 3 Zrotation Yrotation Xrotation
						JOINT Head
						{
							OFFSET 0.10849 1.66041 -0.22648
							CHANNELS 3 Zrotation Yrotation Xrotation
							End Site
							{
								OFFSET 0.04385 1.68267 -0.10541
							}
						}
					}
				}
				JOINT LeftShoulder
				{
					OFFSET 0 0 0
					CHANNELS 3 Zrotation Yrotation Xrotation
					JOINT LeftArm
					{
						OFFSET 3.29108 0.79398 -0.68179
						CHANNELS 3 Zrotation Yrotation Xrotation
						JOINT LeftForeArm
						{
							OFFSET 5.15310 -0.00000 -0.00000
							CHANNELS 3 Zrotation Yrotation Xrotation
							JOINT LeftHand
							{
								OFFSET 3.75138 -0.00000 -0.00000
								CHANNELS 3 Zrotation Yrotation Xrotation
								JOINT LeftFingerBase
								{
									OFFSET 0 0 0
									CHANNELS 3 Zrotation Yrotation Xrotation
									JOINT LeftHandIndex1
									{
										OFFSET 0.52917 -0.00000 0.00000
										CHANNELS 3 Zrotation Yrotation Xrotation
										End Site
										{
											OFFSET 0.42663 -0.00000 0.00000
										}
									}
								}
								JOINT LThumb
								{
									OFFSET 0 0 0
									CHANNELS 3 Zrotation Yrotation Xrotation
									End Site
									{
										OFFSET 0.43315 -0.00000 0.43315
									}
								}
							}
						}
					}
				}
				JOINT RightShoulder
				{
					OFFSET 0 0 0
					CHANNELS 3 Zrotation Yrotation Xrotation
					JOINT RightArm
					{
						OFFSET -3.07414 1.06285 -0.44338
						CHANNELS 3 Zrotation Yrotation Xrotation
						JOINT RightForeArm
						{
							OFFSET -5.29613 -0.00000 0.00000
							CHANNELS 3 Zrotation Yrotation Xrotation
							JOINT RightHand
							{
								OFFSET -3.76144 -0.00000 -0.00000
								CHANNELS 3 Zrotation Yrotation Xrotation
								JOINT RightFingerBase
								{
									OFFSET 0 0 0
									CHANNELS 3 Zrotation Yrotation Xrotation
									JOINT RightHandIndex1
									{
										OFFSET -0.74732 -0.00000 0.00000
										CHANNELS 3 Zrotation Yrotation Xrotation
										End Site
										{
											OFFSET -0.60251 -0.00000 0.00000
										}
									}
								}
								JOINT RThumb
								{
									OFFSET 0 0 0
									CHANNELS 3 Zrotation Yrotation Xrotation
									End Site
									{
										OFFSET -0.61171 -0.00000 0.61171
									}
								}
							}
						}
					}
				}
			}
		}
	}
}
MOTION
Frames: 4
Frame Time: .0083333
1.416300 16.925800 -33.261700 7.441600 5.947200 1.353100 0.000000 0.000000 0.000000 -30.022700 2.415600 17.057100 1.227100 7.025600 19.791300 -0.345800 -12.901500 -3.492400 0.762400 -5.576100 -15.559200 0.000000 0.000000 0.000000 10.212300 11.789600 -30.487300 -1.395900 -7.474500 21.129000 0.047600 -3.996000 -2.531600 -0.269000 3.336500 -9.217000 -12.857400 -5.811600 9.973000 5.237200 -9.212300 -4.400000 14.402600 -3.702400 -7.512000 -14.935500 2.071000 -5.405300 1.850600 4.222500 17.306900 3.293000 1.229300 5.850100 -0.000000 -0.000000 0.000000 -90.681000 2.166700 12.256600 23.759400 -34.908800 -7.568400 -0.000000 -0.000000 0.635300 20.868200 24.508500 8.986600 -7.125000 0.000000 -0.000000 -9.298600 55.746500 -2.467400 -0.000000 -0.000000 0.000000 79.524100 -22.203200 13.608000 -10.241400 17.116300 -1.545200 0.000000 0.000000 16.666600 -14.022100 13.159900 -3.254200 7.125000 -0.000000 -0.000000 9.164800 -16.540500 6.257700
1.410200 16.953700 -32.991700 7.005000 6.221100 1.084500 0.000000 0.000000 0.000000 -29.477400 1.720600 16.733700 1.508900 7.758000 21.981400 -0.447100 -12.783800 -0.675800 0.980100 -6.301900 -17.663000 0.000000 0.000000 0.000000 10.479300 12.536500 -30.026800 -1.589400 -7.952700 22.570600 0.061800 -4.405900 -1.651000 -0.171500 2.667600 -7.354500 -11.461500 -5.378600 9.495000 4.562700 -8.394300 -3.873700 12.636000 -3.444600 -7.190200 -14.084200 1.470900 -5.667500 2.236500 3.292900 17.186100 3.233700 0.868000 5.927000 0.000000 -0.000000 0.000000 -89.421000 1.144400 13.874700 23.499200 -34.630200 -7.420100 -0.000000 -0.000000 0.722600 21.228400 26.469600 9.822700 -7.125000 0.000000 -0.000000 -9.831400 57.818600 -3.104600 0.000000 -0.000000 0.000000 81.809500 -21.611700 10.058400 -9.963100 16.681800 -1.464300 0.000000 0.000000 17.394600 -13.957900 12.600100 -3.103500 7.125000 -0.000000 -0.000000 9.214800 -17.112300 6.176400
1.407300 16.971400 -32.731800 6.407700 5.826100 0.839900 0.000000 0.000000 0.000000 -28.837000 1.417700 15.851400 1.878100 8.607500 24.574900 -0.495700 -12.508900 2.573400 1.092600 -6.642700 -18.661100 0.000000 0.000000 0.000000 11.377800 12.704000 -29.755100 -1.755800 -8.337600 23.744400 0.028600 -3.234500 0.110200 -0.156200 2.546900 -7.019700 -10.956700 -5.357100 9.735100 4.822100 -8.308200 -3.963500 12.682200 -3.389600 -7.477800 -14.219300 1.668300 -5.611200 2.197500 3.578700 17.350900 3.261300 0.987100 5.946400 -0.000000 -0.000000 0.000000 -89.886100 1.428400 12.829900 23.551700 -34.686600 -7.449900 -0.000000 -0.000000 1.051300 20.958200 27.680300 10.089100 -7.125000 0.000000 -0.000000 -10.760200 58.980600 -3.703300 -0.000000 -0.000000 0.000000 81.528800 -21.772800 9.893700 -9.857500 16.516300 -1.434200 0.000000 0.000000 17.766000 -13.856400 12.720100 -3.108900 7.125000 -0.000000 -0.000000 9.283400 -16.997700 6.247200
1.408200 16.980900 -32.471800 5.794400 5.253800 0.596700 0.000000 0.000000 0.000000 -28.180800 1.261900 14.673400 2.313200 9.490000 27.340400 -0.445000 -11.877500 6.420000 1.085900 -6.622800 -18.602700 0.000000 0.000000 0.000000 12.446200 12.764100 -29.387500 -1.904500 -8.664300 24.750800 -0.002200 -2.249800 1.732900 -0.122200 2.253500 -6.206700 -11.178200 -5.699000 10.314600 5.739500 -8.813400 -4.350200 14.041400 -3.542400 -7.924400 -15.181200 2.249300 -5.084300 1.713400 4.458000 17.366200 3.294700 1.315200 5.797400 -0.000000 -0.000000 0.000000 -91.611800 2.511700 10.128700 23.845300 -35.000200 -7.617600 -0.000000 -0.000000 1.121300 19.193900 25.614400 8.558500 -7.125000 0.000000 -0.000000 -11.565700 56.518800 -3.296900 -0.000000 -0.000000 0.000000 79.357400 -22.149000 12.039600 -9.714800 16.292200 -1.393900 0.000000 0.000000 18.125700 -14.297400 13.225300 -3.336800 7.125000 -0.000000 -0.000000 8.975000 -16.454100 6.141900
